<svg viewBox="0 0 64 64" xmlns="http://www.w3.org/2000/svg" role="img" aria-label="古典文库">
  <rect width="64" height="64" rx="14" fill="#16160F"/>
  <path transform="translate(11.829 44.700) scale(0.04038 -0.04038)" fill="#6FB8A0" d="M407 785Q513 737 546.5 712.5Q580 688 580 661Q580 627 559.0 600.0Q538 573 514 573Q498 573 489 608Q466 705 395 770ZM288 529H119Q94 529 81 523L64 565Q84 560 110 560H777L818 619Q829 634 841.0 634.0Q853 634 900.0 590.5Q947 547 947.0 538.0Q947 529 924 529H679Q722 522 744.5 512.5Q767 503 767 499Q767 493 750.5 486.5Q734 480 729.0 472.5Q724 465 717 441Q656 225 555 110Q733 -18 965 -44V-66Q913 -68 880.0 -83.0Q847 -98 833 -132Q829 -140 823 -140Q807 -140 689.5 -76.5Q572 -13 496 52Q315 -97 39 -156L34 -137Q306 -26 439 113Q380 196 347.0 286.0Q314 376 288 529ZM638 529H315Q383 289 489 170Q596 308 638 529Z"/>
</svg>
